<?xml version="1.0" encoding="utf-8"?>
<!-- Generator: Adobe Illustrator 24.2.0, SVG Export Plug-In . SVG Version: 6.00 Build 0)  -->
<svg version="1.1" id="Camada_1" xmlns="http://www.w3.org/2000/svg" xmlns:xlink="http://www.w3.org/1999/xlink" x="0px" y="0px"
	 viewBox="0 0 800 300" style="enable-background:new 0 0 800 300;" xml:space="preserve">
<style type="text/css">
	.st0{fill:url(#SVGID_1_);}
	.st1{fill:#FFFFFF;}
	.st2{fill:none;}
	.st3{fill:#4902DE;}
</style>
<g>
	<g>
		<linearGradient id="SVGID_1_" gradientUnits="userSpaceOnUse" x1="-18.0302" y1="14.7278" x2="180.1022" y2="328.6917">
			<stop  offset="0" style="stop-color:#0E01A7"/>
			<stop  offset="0.1323" style="stop-color:#1809AD"/>
			<stop  offset="0.3599" style="stop-color:#3420BE"/>
			<stop  offset="0.6553" style="stop-color:#6144DA"/>
			<stop  offset="1" style="stop-color:#9E76FF"/>
		</linearGradient>
		<path class="st0" d="M115.19,209.32H19.48c-6.33,0-11.47-5.13-11.47-11.47v-95.71c0-6.33,5.13-11.47,11.47-11.47h95.71
			c6.33,0,11.47,5.13,11.47,11.47v95.71C126.65,204.19,121.52,209.32,115.19,209.32z"/>
		<g>
			<g>
				<path class="st1" d="M71.01,161.72H50.2l-19.65-21.39l19.65-21.39h20.81l-19.75,21.39L71.01,161.72z"/>
			</g>
			<g>
				<path class="st1" d="M66.5,139.22h20.81l19.65,21.39l-19.65,21.39H66.5l19.75-21.39L66.5,139.22z"/>
			</g>
			<g>
				<g>
					<path class="st2" d="M71.01,161.72H50.2l-19.65-21.39l19.65-21.39h20.81l-19.75,21.39L71.01,161.72z"/>
				</g>
			</g>
			<g>
				<g>
					<path class="st2" d="M66.69,138.91H87.5l19.65,21.39L87.5,181.7H66.69l19.75-21.39L66.69,138.91z"/>
				</g>
			</g>
		</g>
	</g>
	<path class="st3" d="M383.59,130.37h-12.55v8.99h12.55c5.6,0,7.8,1.53,7.8,7.37v1.02h-34c-12.72,0-15.94,4.41-15.94,12.12v4.32
		c0,7.46,3.56,12.12,16.79,12.12h24.84c16.28,0,20.94-4.49,20.94-17.8v-11.19C404.03,135.63,398.26,130.37,383.59,130.37z
		 M391.39,159.45c0,6.87-2.54,8.22-8.48,8.22h-23.74c-3.22,0-5.17-1.1-5.17-4.32v-3.14c0-3.65,1.78-4.66,4.75-4.66h32.64V159.45z
		 M328.75,130.37l-23.82,35.18l-24.08-35.18h-15.09l30.26,42.9c1.87,2.63,4.07,4.32,8.73,4.32c4.49,0,6.78-1.78,8.65-4.32
		l30.26-42.9H328.75z M239.07,130.37h-12.55v8.99h12.55c5.6,0,7.8,1.53,7.8,7.37v1.02h-34c-12.72,0-15.94,4.41-15.94,12.12v4.32
		c0,7.46,3.56,12.12,16.79,12.12h24.84c16.28,0,20.94-4.49,20.94-17.8v-11.19C259.5,135.63,253.73,130.37,239.07,130.37z
		 M246.87,159.45c0,6.87-2.54,8.22-8.48,8.22h-23.74c-3.22,0-5.17-1.1-5.17-4.32v-3.14c0-3.65,1.78-4.66,4.75-4.66h32.64V159.45z
		 M171.17,155.89c0,6.78-2.03,9.41-10.34,9.41h-13.99v11.02h15.01c17.21,0,22.21-5.26,22.21-19.84V118.5h-12.89V155.89z
		 M779.1,115.53v60.79h12.89v-60.79H779.1z M460.73,142.07h-27.04c-4.15,0-5.68-1.36-5.68-5v-1.87c0-4.58,1.87-5.76,5.76-5.76h16.79
		V118.5h-17.97c-11.62,0-16.36,4.41-16.36,16.28v2.88c0,9.92,3.39,14.67,16.36,14.67h27.55c4.49,0,6.44,1.36,6.44,5v3.14
		c0,3.9-1.95,4.92-6.53,4.92h-43.92v10.94h44.59c12.89,0,17.63-4.24,17.63-15.01v-4.58C478.36,146.31,473.62,142.07,460.73,142.07z
		 M670.27,130.37h-15.34c-17.04,0-22.04,5.26-22.04,19.92v6.19c0,14.58,5,19.84,22.04,19.84h15.34c17.13,0,22.13-5.26,22.13-19.84
		v-6.1C692.39,135.63,687.39,130.37,670.27,130.37z M679.76,156.14c0,7.63-2.04,9.5-11.19,9.5h-11.95c-8.99,0-11.11-1.86-11.11-9.5
		v-5.43c0-7.8,2.12-9.5,11.11-9.5h11.95c9.15,0,11.19,1.7,11.19,9.5V156.14z M743.16,130.37h-15.34c-17.04,0-22.04,5.26-22.04,19.92
		v6.19c0,14.58,5,19.84,22.04,19.84h15.34c17.13,0,22.13-5.26,22.13-19.84v-6.1C765.29,135.63,760.29,130.37,743.16,130.37z
		 M752.66,156.14c0,7.63-2.04,9.5-11.19,9.5h-11.95c-8.99,0-11.11-1.86-11.11-9.5v-5.43c0-7.8,2.12-9.5,11.11-9.5h11.95
		c9.15,0,11.19,1.7,11.19,9.5V156.14z M597.11,130.37H571.6v-14.84h-12.63v60.79h12.63v-35.1h25.18c7.8,0,9.92,1.78,9.92,9.5v25.6
		h12.63v-26.03C619.33,135.63,614.32,130.37,597.11,130.37z M502.85,156.14v-5.43c0-7.55,1.86-9.5,9.83-9.5h32.81v-10.85h-33.23
		c-17.04,0-22.04,5.26-22.04,19.92v6.19c0,14.58,5,19.84,22.04,19.84h33.32v-10.68h-32.89C504.8,165.64,502.85,163.43,502.85,156.14
		z"/>
</g>
</svg>
